PathFileType	4	(X/Y/Z)	Kaydara																																																																																																																																																																																																																												
DataRate	CameraRate	NumFrames	NumMarkers	Units	OrigDataRate	OrigDataStartFrame	OrigNumFrames																																																																																																																																																																																																																								
60	60	4	74	mm	60	2391	226																																																																																																																																																																																																																								
Frame#	Time	N_lasi			N_rasi			N_rpsi			N_lpsi			N_fneck			N_bneck			N_fhead			N_rhead			N_lhead			N_rshld			N_relbtop			N_relbext			N_relblow			N_rwrext			N_rwrtop			N_rwrlow			N_lshld			N_lelblow			N_lelbtop			N_lwrext			N_lwrtop			N_lwrlow			N_rtopleg			N_ltopleg			N_rkneefr			N_rkneebk			N_rkneeis			N_lkneefr			N_lknssbk			N_lkneeis			N_rankfr			N_rankis			N_rankbk			N_lankfr			N_lankbk			N_lankis			D_lasi			D_rasi			D_lpsi			D_fneck			D_bneck			D_fhead			D_rhead			D_lhead			D_rshld			D_relbtop			D_relbext			D_relblow			D_rwrext			D_rwrtop			D_rwrlow			D_lshld			D_lelbext			D_lelblow			D_lelbtop			D_lwrext			D_lwrtop			D_lwrlow			D_rtopleg			D_ltopleg			D_rkneefr			D_rkneebk			D_rkneeis			D_lkneefr			D_lknssbk			D_lkneeis			D_rankfr			D_rankis			D_rankbk			D_lankfr			D_lankbk			D_lankis			D_rpsi			N_lelbext		
		X1	Y1	Z1	X2	Y2	Z2	X3	Y3	Z3	X4	Y4	Z4	X5	Y5	Z5	X6	Y6	Z6	X7	Y7	Z7	X8	Y8	Z8	X9	Y9	Z9	X10	Y10	Z10	X11	Y11	Z11	X12	Y12	Z12	X13	Y13	Z13	X14	Y14	Z14	X15	Y15	Z15	X16	Y16	Z16	X17	Y17	Z17	X18	Y18	Z18	X19	Y19	Z19	X20	Y20	Z20	X21	Y21	Z21	X22	Y22	Z22	X23	Y23	Z23	X24	Y24	Z24	X25	Y25	Z25	X26	Y26	Z26	X27	Y27	Z27	X28	Y28	Z28	X29	Y29	Z29	X30	Y30	Z30	X31	Y31	Z31	X32	Y32	Z32	X33	Y33	Z33	X34	Y34	Z34	X35	Y35	Z35	X36	Y36	Z36	X37	Y37	Z37	X38	Y38	Z38	X39	Y39	Z39	X40	Y40	Z40	X41	Y41	Z41	X42	Y42	Z42	X43	Y43	Z43	X44	Y44	Z44	X45	Y45	Z45	X46	Y46	Z46	X47	Y47	Z47	X48	Y48	Z48	X49	Y49	Z49	X50	Y50	Z50	X51	Y51	Z51	X52	Y52	Z52	X53	Y53	Z53	X54	Y54	Z54	X55	Y55	Z55	X56	Y56	Z56	X57	Y57	Z57	X58	Y58	Z58	X59	Y59	Z59	X60	Y60	Z60	X61	Y61	Z61	X62	Y62	Z62	X63	Y63	Z63	X64	Y64	Z64	X65	Y65	Z65	X66	Y66	Z66	X67	Y67	Z67	X68	Y68	Z68	X69	Y69	Z69	X70	Y70	Z70	X71	Y71	Z71	X72	Y72	Z72	X73	Y73	Z73	X74	Y74	Z74
																																																																																																																																																																																																																															
170	39.833	-521.29292	1255.13885	-89.04227	-511.81881	1263.67188	-317.4892	-245.54241	1229.19708	-370.87543	-261.67168	1227.98515	-23.42171	-377.91088	1604.89151	-191.98849	-214.91088	1658.89151	-169.98849	-468.27698	1794.54391	-206.45281	-272.81076	1777.59537	-259.0451	-327.32986	1777.81998	-112.35017	-257.85233	1628.74359	-405.67554	-223.41227	1502.31064	-655.91957	-312.68898	1473.9621	-652.95486	-276.55708	1576.48651	-658.69194	-240.0462	1484.51462	-980.59212	-281.21599	1506.4238	-990.65414	-317.38192	1476.99692	-979.7258	-237.09362	1608.43582	11.90899	-233.08132	1543.04749	269.42169	-216.61749	1458.51364	259.33386	-199.01728	1441.06812	576.81137	-226.26394	1476.08505	592.99316	-270.17962	1446.77185	583.35606	-411.24783	1060.10231	-452.70374	-360.38433	1042.18399	39.36472	-422.45609	561.88705	-265.0308	-316.81625	578.79368	-334.05983	-361.45168	565.21137	-172.24686	-378.78071	540.86861	-108.24121	-253.42375	556.37688	-45.25203	-249.96813	547.48138	-194.67505	-293.79072	139.78914	-274.42518	-296.91027	154.79514	-194.54428	-215.21786	141.03578	-217.72835	-332.44522	193.3844	-121.85957	-260.74841	185.99586	-76.83194	-266.39666	194.15216	-165.25368	-468.88187	1036.82564	1747.52426	-448.79005	1061.45187	1461.82037	-273.26805	1133.36212	1739.73831	-413.02643	1568.05878	1613.80249	-273.04811	1594.60037	1620.24857	-458.0204	1773.29575	1613.95889	-296.11668	1731.90018	1533.60046	-301.7844	1733.21625	1690.33478	-314.25592	1588.91571	1504.66766	-376.96384	1620.24368	1215.3891	-441.08265	1628.35007	1253.33977	-353.95706	1682.78839	1268.60725	-477.59686	1859.11942	1122.79617	-470.63572	1885.9346	1172.80319	-517.44411	1861.89178	1188.35602	-332.35172	1576.11191	1781.0994	-476.27392	1611.85287	1980.42496	-387.64832	1627.97775	2002.67334	-442.08618	1587.51694	2046.91681	-518.74783	1853.54004	2025.02701	-482.72419	1860.3598	1998.03848	-493.12065	1844.15741	1955.39246	-359.75002	1005.73608	1405.55435	-322.35027	1009.7821	1804.62967	-383.23856	454.79	1449.83658	-285.67892	492.62276	1418.00125	-286.8862	461.11328	1538.99658	-357.80357	448.08643	1769.79919	-245.02022	486.89346	1781.84097	-319.87989	443.66714	1676.84464	-327.00336	130.64727	1417.52167	-296.1475	128.0475	1481.58386	-246.70883	130.01683	1415.59219	-323.23986	135.58941	1792.3587	-250.1305	125.53668	1804.88342	-295.35086	124.29239	1732.66846	-260.86584	1151.02928	1521.29944	-306.71843	1469.24759	262.18765
171	39.85	-521.4402	1255.30968	-88.99652	-512.17255	1263.72711	-317.57057	-245.83591	1229.14955	-371.0294	-261.66119	1228.05878	-23.47627	-378.07552	1604.86725	-192.38806	-215.07552	1658.86725	-170.38806	-468.58963	1794.44519	-206.86987	-273.11796	1777.5296	-259.78725	-327.53712	1778.16254	-112.99046	-258.16502	1627.06024	-407.64423	-222.05072	1496.53748	-655.59494	-310.99907	1467.57874	-652.41127	-275.79681	1570.28931	-659.72733	-236.43734	1472.30927	-979.75533	-277.68066	1493.94592	-990.37224	-313.68687	1464.62082	-979.17091	-237.90678	1607.19681	13.13462	-233.24753	1536.19766	269.22766	-215.7744	1452.10266	257.31394	-197.85282	1427.47223	574.26418	-225.18452	1462.05551	591.20308	-269.03963	1432.73102	580.966	-411.41727	1060.04318	-452.69997	-360.50175	1042.34055	39.52401	-422.25895	561.88328	-265.06945	-316.60034	578.82832	-334.07459	-361.3937	565.22778	-172.28973	-378.83228	540.87521	-108.32988	-253.52266	556.36497	-45.18925	-249.88293	547.52815	-194.64815	-293.71622	139.82011	-274.46383	-296.9433	154.8524	-194.56125	-215.18091	141.01226	-217.73346	-332.44884	193.40639	-121.86625	-260.78524	185.99718	-76.79005	-266.41687	194.1638	-165.23609	-468.391	1037.01828	1747.68478	-448.83411	1061.74095	1461.85562	-272.49697	1133.56468	1739.53323	-413.05	1568.12256	1616.16165	-273.19693	1594.34555	1623.14041	-457.44656	1773.61908	1617.0163	-295.73231	1731.96579	1537.15317	-301.53843	1732.89566	1693.591	-314.67331	1588.72559	1505.98419	-372.44251	1614.38583	1215.41374	-437.96932	1623.01498	1250.76286	-351.21799	1679.3222	1266.2735	-469.60369	1846.18301	1105.94009	-467.03358	1875.97305	1154.74464	-514.10404	1851.26984	1168.2119	-333.03352	1577.11349	1780.29999	-480.22739	1621.20163	1975.2681	-391.5889	1638.31894	1997.50763	-446.41552	1598.95737	2042.65625	-523.58944	1864.4371	2016.34872	-488.14972	1870.76035	1988.66165	-499.30374	1853.51196	1946.92474	-359.87705	1005.80536	1405.24277	-321.81213	1009.91608	1804.2453	-383.56335	454.85168	1449.6843	-286.05865	492.69653	1417.91672	-287.16202	461.28662	1538.91785	-357.65507	448.07415	1769.67285	-244.92851	486.89438	1781.59897	-319.78336	443.64365	1676.707	-327.09614	130.60121	1417.58865	-296.18731	128.07128	1481.59378	-246.76182	130.0564	1415.64087	-323.24081	135.61168	1792.38449	-250.09302	125.52185	1804.88525	-295.34864	124.28095	1732.62817	-260.56589	1151.02646	1521.11053	-305.93981	1461.66245	260.3945
172	39.867	-521.50703	1255.44174	-88.98489	-512.57904	1263.76549	-317.55947	-246.17218	1229.14673	-371.20941	-261.60059	1228.08815	-23.55812	-378.39905	1604.74701	-192.85542	-215.39905	1658.74701	-170.85542	-468.89233	1794.32983	-207.28628	-274.03538	1777.44614	-260.48594	-327.99404	1778.41995	-113.29691	-258.41654	1625.15762	-409.68422	-220.29621	1490.31219	-655.03868	-309.41065	1461.22757	-651.80626	-274.87003	1563.42758	-660.93895	-233.00611	1458.95004	-978.51677	-274.22039	1480.18341	-989.85229	-309.99722	1451.05515	-978.15346	-238.81924	1605.67978	14.43303	-233.56422	1528.46863	269.13334	-214.97822	1444.86496	255.18768	-196.58175	1412.61688	571.19263	-223.94646	1446.76926	588.78937	-267.64133	1417.59338	578.12733	-411.64162	1059.96483	-452.59838	-360.49458	1042.45804	39.72106	-422.09095	561.88332	-265.09876	-316.42096	578.85284	-334.07822	-361.27171	565.21812	-172.31129	-378.8604	540.90649	-108.3727	-253.52385	556.38062	-45.15687	-249.79465	547.55249	-194.58498	-293.6729	139.83185	-274.49432	-296.87672	154.85677	-194.60146	-215.13172	141.02511	-217.73712	-332.44225	193.4107	-121.88227	-261.03748	186.27905	-76.12955	-266.53967	194.30691	-164.91385	-467.94571	1037.13951	1747.46033	-448.76991	1062.00401	1461.586	-271.97001	1133.89648	1739.83856	-413.19496	1568.237	1618.74252	-273.40038	1594.10294	1625.59067	-457.01485	1773.96576	1619.89136	-295.43819	1731.78482	1540.354	-301.54186	1732.52655	1696.74011	-314.98419	1588.72498	1507.22137	-368.15578	1608.87756	1215.74059	-435.26447	1617.82043	1248.43323	-348.59688	1676.02493	1263.9711	-460.95245	1832.44308	1089.32129	-462.99137	1864.91821	1136.49681	-509.71992	1839.01031	1147.3867	-333.71788	1577.68692	1779.57031	-484.08272	1629.69315	1969.72015	-395.62435	1647.72064	1992.64374	-451.17622	1609.65912	2038.21625	-528.8781	1874.49615	2007.48642	-493.51997	1880.40314	1979.63364	-505.19508	1862.17194	1937.53937	-359.67056	1005.83458	1404.96872	-321.28609	1010.0563	1803.95447	-383.7841	454.78294	1449.78165	-286.31077	492.6955	1417.98355	-287.3518	461.36326	1539.01459	-357.48367	448.08994	1769.6344	-244.659	486.88065	1781.82404	-319.69736	443.62267	1676.69022	-327.15477	130.57329	1417.69623	-296.30152	128.03497	1481.62384	-246.7853	130.1136	1415.67169	-323.21445	135.63367	1792.47803	-250.09281	125.50602	1804.93179	-295.32673	124.26856	1732.69257	-260.25019	1151.05911	1521.05331	-305.48422	1453.44513	258.51156
173	39.883	-521.61598	1255.50186	-88.97442	-512.96646	1263.74825	-317.58438	-246.47427	1229.13811	-371.30741	-261.58051	1228.08472	-23.65623	-378.85056	1604.58496	-193.33668	-215.85056	1658.58496	-171.33668	-469.16729	1794.28223	-207.694	-274.11299	1777.63046	-261.07006	-328.35014	1778.4024	-113.77075	-258.57294	1623.11188	-411.89369	-218.70275	1483.10516	-654.43184	-307.66403	1453.55194	-650.94292	-273.90985	1555.65689	-662.09129	-229.61241	1444.73907	-976.92474	-271.03935	1465.2121	-988.91464	-306.3225	1435.90302	-976.66191	-239.45875	1603.87009	15.92237	-233.51002	1519.77112	268.87484	-214.22562	1436.66122	252.64757	-195.31168	1396.70898	567.63756	-222.93427	1430.25436	586.13266	-266.60534	1401.05637	574.97593	-411.86947	1059.81667	-452.44057	-360.47565	1042.5116	39.92918	-421.93962	561.8977	-265.13613	-316.26781	578.89874	-334.1016	-361.20491	565.24422	-172.29673	-378.82397	540.89436	-108.41187	-253.53052	556.37753	-45.12408	-249.64813	547.56802	-194.55397	-293.61338	139.87244	-274.51746	-296.82852	154.89005	-194.64102	-215.15755	140.99512	-217.69823	-332.43992	193.43979	-121.87963	-261.0421	186.28511	-76.12314	-266.54085	194.32447	-164.90932	-467.70397	1037.32094	1747.34238	-448.47996	1062.10274	1461.41525	-271.65703	1134.03099	1739.80515	-413.56853	1568.32947	1621.06995	-273.66072	1593.89099	1628.30521	-456.6674	1774.13589	1622.58713	-295.08921	1731.63895	1543.40973	-301.50991	1732.16843	1699.76898	-315.44815	1588.38364	1508.32504	-364.32453	1603.38348	1216.26549	-432.56237	1612.95944	1246.40533	-345.84904	1672.98721	1261.64719	-451.26797	1817.82654	1073.81302	-458.03001	1852.89108	1118.46222	-504.48315	1825.59341	1126.81946	-334.50813	1578.16742	1779.06799	-488.0452	1637.4614	1964.10156	-399.96624	1656.03806	1987.30942	-456.56082	1619.2099	2033.48145	-534.46365	1883.50128	1998.58231	-498.70594	1889.08005	1971.60263	-509.83715	1870.36148	1929.35547	-359.19842	1005.81627	1404.67133	-320.95501	1010.16785	1803.82126	-383.82977	454.80408	1449.68704	-286.33268	492.67796	1418.11417	-287.57345	461.22074	1539.04099	-357.5671	448.16872	1769.70947	-244.76656	486.81358	1781.73096	-319.62124	443.66894	1676.79367	-327.1302	130.55235	1417.71408	-296.38783	128.04052	1481.67892	-246.79453	130.07015	1415.82535	-323.23711	135.61463	1792.5885	-250.11841	125.48838	1804.96643	-295.31361	124.28928	1732.76825	-259.9601	1151.20415	1521.13068	-304.6113	1444.37744	256.3139
